{"accessors":[{"bufferView":2,"componentType":5126,"count":84,"max":[0.5,0.5,0.7279691696166992],"min":[-0.5,-0.5,-0.7279691696166992],"type":"VEC3"},{"bufferView":2,"byteOffset":1008,"componentType":5126,"count":84,"max":[0.8227319717407227,0.9999619722366333,1],"min":[-0.8925584554672241,-0.9996770024299622,-1],"type":"VEC3"},{"bufferView":1,"componentType":5126,"count":84,"max":[0,0],"min":[0,0],"type":"VEC2"},{"bufferView":0,"componentType":5125,"count":240,"type":"SCALAR"},{"bufferView":2,"byteOffset":2016,"componentType":5126,"count":4,"max":[0.5,0.5,0],"min":[-0.5,-0.5,0],"type":"VEC3"},{"bufferView":2,"byteOffset":2064,"componentType":5126,"count":4,"max":[0,0,1],"min":[0,0,1],"type":"VEC3"},{"bufferView":1,"byteOffset":672,"componentType":5126,"count":4,"max":[1,1],"min":[0,0],"type":"VEC2"},{"bufferView":0,"byteOffset":960,"componentType":5125,"count":6,"type":"SCALAR"},{"bufferView":2,"byteOffset":2112,"componentType":5126,"count":4,"max":[0.5,0.5,0],"min":[-0.5,-0.5,0],"type":"VEC3"},{"bufferView":2,"byteOffset":2160,"componentType":5126,"count":4,"max":[0,0,1],"min":[0,0,1],"type":"VEC3"},{"bufferView":1,"byteOffset":704,"componentType":5126,"count":4,"max":[1,1],"min":[0,0],"type":"VEC2"},{"bufferView":0,"byteOffset":984,"componentType":5125,"count":6,"type":"SCALAR"},{"bufferView":2,"byteOffset":2208,"componentType":5126,"count":4,"max":[0.5,0.5,0],"min":[-0.5,-0.5,0],"type":"VEC3"},{"bufferView":2,"byteOffset":2256,"componentType":5126,"count":4,"max":[0,0,1],"min":[0,0,1],"type":"VEC3"},{"bufferView":1,"byteOffset":736,"componentType":5126,"count":4,"max":[1,1],"min":[0,0],"type":"VEC2"},{"bufferView":0,"byteOffset":1008,"componentType":5125,"count":6,"type":"SCALAR"},{"bufferView":2,"byteOffset":2304,"componentType":5126,"count":219,"max":[0.5,0.4999999701976776,0.17267993092536926],"min":[-0.5,-0.4999999701976776,-0.17267993092536926],"type":"VEC3"},{"bufferView":2,"byteOffset":4932,"componentType":5126,"count":219,"max":[0.9999690055847168,0.9999850392341614,1],"min":[-0.9916480779647827,-0.9998616576194763,-1],"type":"VEC3"},{"bufferView":1,"byteOffset":768,"componentType":5126,"count":219,"max":[0.7474343776702881,0.9998263120651245],"min":[0.00010573863983154297,0.000063184997998178],"type":"VEC2"},{"bufferView":1,"byteOffset":2520,"componentType":5126,"count":219,"max":[0.7474343776702881,0.9998263120651245],"min":[0.00010573863983154297,0.000063184997998178],"type":"VEC2"},{"bufferView":1,"byteOffset":4272,"componentType":5126,"count":219,"max":[0.7474343776702881,0.9998263120651245],"min":[0.00010573863983154297,0.000063184997998178],"type":"VEC2"},{"bufferView":0,"byteOffset":1032,"componentType":5125,"count":612,"type":"SCALAR"},{"bufferView":2,"byteOffset":7560,"componentType":5126,"count":216,"max":[0.5,0.5,1.3671715259552002],"min":[-0.5,-0.5,-1.3671715259552002],"type":"VEC3"},{"bufferView":2,"byteOffset":10152,"componentType":5126,"count":216,"max":[0.9951187372207642,1,1],"min":[-0.9960572719573975,-0.9989482760429382,-1],"type":"VEC3"},{"bufferView":1,"byteOffset":6024,"componentType":5126,"count":216,"max":[0,0],"min":[0,0],"type":"VEC2"},{"bufferView":0,"byteOffset":3480,"componentType":5125,"count":600,"type":"SCALAR"},{"bufferView":2,"byteOffset":12744,"componentType":5126,"count":4,"max":[0.5,0.5,0],"min":[-0.5,-0.5,0],"type":"VEC3"},{"bufferView":2,"byteOffset":12792,"componentType":5126,"count":4,"max":[0,0,1],"min":[0,0,1],"type":"VEC3"},{"bufferView":1,"byteOffset":7752,"componentType":5126,"count":4,"max":[1,1],"min":[0,0],"type":"VEC2"},{"bufferView":0,"byteOffset":5880,"componentType":5125,"count":6,"type":"SCALAR"},{"bufferView":2,"byteOffset":12840,"componentType":5126,"count":84,"max":[0.5,0.5,0.7279691696166992],"min":[-0.5,-0.5,-0.7279691696166992],"type":"VEC3"},{"bufferView":2,"byteOffset":13848,"componentType":5126,"count":84,"max":[0.8227319717407227,0.9999619722366333,1],"min":[-0.8925584554672241,-0.9996770024299622,-1],"type":"VEC3"},{"bufferView":1,"byteOffset":7784,"componentType":5126,"count":84,"max":[0,0],"min":[0,0],"type":"VEC2"},{"bufferView":0,"byteOffset":5904,"componentType":5125,"count":240,"type":"SCALAR"},{"bufferView":2,"byteOffset":14856,"componentType":5126,"count":84,"max":[0.5,0.5,0.7279691696166992],"min":[-0.5,-0.5,-0.7279691696166992],"type":"VEC3"},{"bufferView":2,"byteOffset":15864,"componentType":5126,"count":84,"max":[0.8227319717407227,0.9999619722366333,1],"min":[-0.8925584554672241,-0.9996770024299622,-1],"type":"VEC3"},{"bufferView":1,"byteOffset":8456,"componentType":5126,"count":84,"max":[0,0],"min":[0,0],"type":"VEC2"},{"bufferView":0,"byteOffset":6864,"componentType":5125,"count":240,"type":"SCALAR"},{"bufferView":2,"byteOffset":16872,"componentType":5126,"count":130,"max":[0.4999999701976776,0.5,0.7719862461090088],"min":[-0.4999999701976776,-0.5,-0.7719862461090088],"type":"VEC3"},{"bufferView":2,"byteOffset":18432,"componentType":5126,"count":130,"max":[0.9979236125946045,0.995829701423645,1],"min":[-0.9980425834655762,-0.9997005462646484,-1],"type":"VEC3"},{"bufferView":1,"byteOffset":9128,"componentType":5126,"count":130,"max":[0.9072794914245605,0.9997782707214355],"min":[0.000027835369110107422,0.000225067138671875],"type":"VEC2"},{"bufferView":1,"byteOffset":10168,"componentType":5126,"count":130,"max":[0.9072794914245605,0.9997782707214355],"min":[0.000027835369110107422,0.000225067138671875],"type":"VEC2"},{"bufferView":1,"byteOffset":11208,"componentType":5126,"count":130,"max":[0.9072794914245605,0.9997782707214355],"min":[0.000027835369110107422,0.000225067138671875],"type":"VEC2"},{"bufferView":0,"byteOffset":7824,"componentType":5125,"count":336,"type":"SCALAR"},{"bufferView":2,"byteOffset":19992,"componentType":5126,"count":84,"max":[0.5,0.5,0.7279691696166992],"min":[-0.5,-0.5,-0.7279691696166992],"type":"VEC3"},{"bufferView":2,"byteOffset":21000,"componentType":5126,"count":84,"max":[0.8227319717407227,0.9999619722366333,1],"min":[-0.8925584554672241,-0.9996770024299622,-1],"type":"VEC3"},{"bufferView":1,"byteOffset":12248,"componentType":5126,"count":84,"max":[0,0],"min":[0,0],"type":"VEC2"},{"bufferView":0,"byteOffset":9168,"componentType":5125,"count":240,"type":"SCALAR"},{"bufferView":2,"byteOffset":22008,"componentType":5126,"count":332,"max":[17.63745880126953,19.820396423339844,17.63745880126953],"min":[-17.63745880126953,-19.820396423339844,-17.6374568939209],"type":"VEC3"},{"bufferView":2,"byteOffset":25992,"componentType":5126,"count":332,"max":[1,1,1],"min":[-1,-1,-1],"type":"VEC3"},{"bufferView":1,"byteOffset":12920,"componentType":5126,"count":332,"max":[0.9351795315742493,0.9999549388885498],"min":[0.000044792890548706055,0.0000451207160949707],"type":"VEC2"},{"bufferView":1,"byteOffset":15576,"componentType":5126,"count":332,"max":[0.9351795315742493,0.9999549388885498],"min":[0.000044792890548706055,0.0000451207160949707],"type":"VEC2"},{"bufferView":1,"byteOffset":18232,"componentType":5126,"count":332,"max":[0.9351795315742493,0.9999549388885498],"min":[0.000044792890548706055,0.0000451207160949707],"type":"VEC2"},{"bufferView":0,"byteOffset":10128,"componentType":5125,"count":960,"type":"SCALAR"},{"bufferView":2,"byteOffset":29976,"componentType":5126,"count":332,"max":[17.63745880126953,19.820396423339844,17.63745880126953],"min":[-17.63745880126953,-19.820396423339844,-17.6374568939209],"type":"VEC3"},{"bufferView":2,"byteOffset":33960,"componentType":5126,"count":332,"max":[1,1,1],"min":[-1,-1,-1],"type":"VEC3"},{"bufferView":1,"byteOffset":20888,"componentType":5126,"count":332,"max":[0.9351795315742493,0.9999549388885498],"min":[0.000044792890548706055,0.0000451207160949707],"type":"VEC2"},{"bufferView":1,"byteOffset":23544,"componentType":5126,"count":332,"max":[0.9351795315742493,0.9999549388885498],"min":[0.000044792890548706055,0.0000451207160949707],"type":"VEC2"},{"bufferView":1,"byteOffset":26200,"componentType":5126,"count":332,"max":[0.9351795315742493,0.9999549388885498],"min":[0.000044792890548706055,0.0000451207160949707],"type":"VEC2"},{"bufferView":0,"byteOffset":13968,"componentType":5125,"count":960,"type":"SCALAR"},{"bufferView":2,"byteOffset":37944,"componentType":5126,"count":332,"max":[17.63745880126953,19.820396423339844,17.63745880126953],"min":[-17.63745880126953,-19.820396423339844,-17.6374568939209],"type":"VEC3"},{"bufferView":2,"byteOffset":41928,"componentType":5126,"count":332,"max":[1,1,1],"min":[-1,-1,-1],"type":"VEC3"},{"bufferView":1,"byteOffset":28856,"componentType":5126,"count":332,"max":[0.9351795315742493,0.9999549388885498],"min":[0.000044792890548706055,0.0000451207160949707],"type":"VEC2"},{"bufferView":1,"byteOffset":31512,"componentType":5126,"count":332,"max":[0.9351795315742493,0.9999549388885498],"min":[0.000044792890548706055,0.0000451207160949707],"type":"VEC2"},{"bufferView":1,"byteOffset":34168,"componentType":5126,"count":332,"max":[0.9351795315742493,0.9999549388885498],"min":[0.000044792890548706055,0.0000451207160949707],"type":"VEC2"},{"bufferView":0,"byteOffset":17808,"componentType":5125,"count":960,"type":"SCALAR"}],"asset":{"extras":{"author":"EIT (https://sketchfab.com/elyorabduhalimov18)","license":"CC-BY-4.0 (http://creativecommons.org/licenses/by/4.0/)","source":"https://sketchfab.com/3d-models/iphone-13-pro-max-b9b8eb4bb99d41f59b723d5abe308d7a","title":"IPHONE 13 PRO MAX"},"generator":"Sketchfab-14.34.0","version":"2.0"},"bufferViews":[{"buffer":0,"byteLength":21648,"name":"floatBufferViews","target":34963},{"buffer":0,"byteLength":36824,"byteOffset":21648,"byteStride":8,"name":"floatBufferViews","target":34962},{"buffer":0,"byteLength":45912,"byteOffset":58472,"byteStride":12,"name":"floatBufferViews","target":34962}],"buffers":[{"byteLength":104384,"uri":"data:application/octet-stream;base64,"}],"extensionsRequired":["KHR_materials_pbrSpecularGlossiness"],"extensionsUsed":["KHR_materials_pbrSpecularGlossiness"],"images":[{"uri":"data:application/octet-stream;base64,"},{"uri":"data:application/octet-stream;base64,"},{"uri":"data:application/octet-stream;base64,"},{"uri":"data:application/octet-stream;base64,"},{"uri":"data:application/octet-stream;base64,"},{"uri":"data:application/octet-stream;base64,"},{"uri":"data:application/octet-stream;base64,"},{"uri":"data:application/octet-stream;base64,"},{"uri":"data:application/octet-stream;base64,"},{"uri":"data:application/octet-stream;base64,"}],"materials":[{"doubleSided":true,"extensions":{"KHR_materials_pbrSpecularGlossiness":{"diffuseFactor":[1,1,1,1],"diffuseTexture":{"index":0},"glossinessFactor":1,"specularFactor":[1,1,1],"specularGlossinessTexture":{"index":1,"texCoord":1}}},"name":"material"},{"alphaMode":"BLEND","doubleSided":true,"extensions":{"KHR_materials_pbrSpecularGlossiness":{"diffuseFactor":[1,1,1,1],"diffuseTexture":{"index":2},"glossinessFactor":0,"specularFactor":[0,0,0]}},"name":"material_1"},{"alphaMode":"BLEND","doubleSided":true,"extensions":{"KHR_materials_pbrSpecularGlossiness":{"diffuseFactor":[1,1,1,1],"diffuseTexture":{"index":2},"glossinessFactor":0,"specularFactor":[0,0,0]}},"name":"material_2"},{"alphaMode":"BLEND","doubleSided":true,"extensions":{"KHR_materials_pbrSpecularGlossiness":{"diffuseFactor":[1,1,1,1],"diffuseTexture":{"index":2},"glossinessFactor":0,"specularFactor":[0,0,0]}},"name":"material_3"},{"doubleSided":true,"extensions":{"KHR_materials_pbrSpecularGlossiness":{"diffuseFactor":[1,1,1,1],"diffuseTexture":{"index":3},"glossinessFactor":1,"specularFactor":[1,1,1],"specularGlossinessTexture":{"index":4}}},"name":"material_4"},{"doubleSided":true,"extensions":{"KHR_materials_pbrSpecularGlossiness":{"diffuseFactor":[1,1,1,1],"diffuseTexture":{"index":0},"glossinessFactor":1,"specularFactor":[1,1,1],"specularGlossinessTexture":{"index":1,"texCoord":1}}},"name":"material_5"},{"alphaMode":"BLEND","doubleSided":true,"extensions":{"KHR_materials_pbrSpecularGlossiness":{"diffuseFactor":[1,1,1,1],"diffuseTexture":{"index":5},"glossinessFactor":0,"specularFactor":[0,0,0]}},"name":"material_6"},{"doubleSided":true,"extensions":{"KHR_materials_pbrSpecularGlossiness":{"diffuseFactor":[1,1,1,1],"diffuseTexture":{"index":0},"glossinessFactor":1,"specularFactor":[1,1,1],"specularGlossinessTexture":{"index":1,"texCoord":1}}},"name":"material_7"},{"doubleSided":true,"extensions":{"KHR_materials_pbrSpecularGlossiness":{"diffuseFactor":[1,1,1,1],"diffuseTexture":{"index":0},"glossinessFactor":1,"specularFactor":[1,1,1],"specularGlossinessTexture":{"index":1,"texCoord":1}}},"name":"material_8"},{"doubleSided":true,"extensions":{"KHR_materials_pbrSpecularGlossiness":{"diffuseFactor":[1,1,1,1],"diffuseTexture":{"index":6},"glossinessFactor":1,"specularFactor":[1,1,1],"specularGlossinessTexture":{"index":7}}},"name":"material_9"},{"doubleSided":true,"extensions":{"KHR_materials_pbrSpecularGlossiness":{"diffuseFactor":[1,1,1,1],"diffuseTexture":{"index":0},"glossinessFactor":1,"specularFactor":[1,1,1],"specularGlossinessTexture":{"index":1,"texCoord":1}}},"name":"material_10"},{"doubleSided":true,"extensions":{"KHR_materials_pbrSpecularGlossiness":{"diffuseFactor":[1,1,1,1],"diffuseTexture":{"index":8},"glossinessFactor":1,"specularFactor":[1,1,1],"specularGlossinessTexture":{"index":9}}},"name":"material_11"},{"doubleSided":true,"extensions":{"KHR_materials_pbrSpecularGlossiness":{"diffuseFactor":[1,1,1,1],"diffuseTexture":{"index":8},"glossinessFactor":1,"specularFactor":[1,1,1],"specularGlossinessTexture":{"index":9}}},"name":"material_12"},{"doubleSided":true,"extensions":{"KHR_materials_pbrSpecularGlossiness":{"diffuseFactor":[1,1,1,1],"diffuseTexture":{"index":8},"glossinessFactor":1,"specularFactor":[1,1,1],"specularGlossinessTexture":{"index":9}}},"name":"material_13"}],"meshes":[{"name":"Object_0","primitives":[{"attributes":{"NORMAL":1,"POSITION":0,"TEXCOORD_0":2,"TEXCOORD_1":2},"indices":3,"material":0,"mode":4}]},{"name":"Object_1","primitives":[{"attributes":{"NORMAL":5,"POSITION":4,"TEXCOORD_0":6},"indices":7,"material":1,"mode":4}]},{"name":"Object_2","primitives":[{"attributes":{"NORMAL":9,"POSITION":8,"TEXCOORD_0":10},"indices":11,"material":2,"mode":4}]},{"name":"Object_3","primitives":[{"attributes":{"NORMAL":13,"POSITION":12,"TEXCOORD_0":14},"indices":15,"material":3,"mode":4}]},{"name":"Object_4","primitives":[{"attributes":{"NORMAL":17,"POSITION":16,"TEXCOORD_0":18,"TEXCOORD_1":19,"TEXCOORD_2":20},"indices":21,"material":4,"mode":4}]},{"name":"Object_5","primitives":[{"attributes":{"NORMAL":23,"POSITION":22,"TEXCOORD_0":24,"TEXCOORD_1":24},"indices":25,"material":5,"mode":4}]},{"name":"Object_6","primitives":[{"attributes":{"NORMAL":27,"POSITION":26,"TEXCOORD_0":28},"indices":29,"material":6,"mode":4}]},{"name":"Object_7","primitives":[{"attributes":{"NORMAL":31,"POSITION":30,"TEXCOORD_0":32,"TEXCOORD_1":32},"indices":33,"material":7,"mode":4}]},{"name":"Object_8","primitives":[{"attributes":{"NORMAL":35,"POSITION":34,"TEXCOORD_0":36,"TEXCOORD_1":36},"indices":37,"material":8,"mode":4}]},{"name":"Object_9","primitives":[{"attributes":{"NORMAL":39,"POSITION":38,"TEXCOORD_0":40,"TEXCOORD_1":41,"TEXCOORD_2":42},"indices":43,"material":9,"mode":4}]},{"name":"Object_10","primitives":[{"attributes":{"NORMAL":45,"POSITION":44,"TEXCOORD_0":46,"TEXCOORD_1":46},"indices":47,"material":10,"mode":4}]},{"name":"Object_11","primitives":[{"attributes":{"NORMAL":49,"POSITION":48,"TEXCOORD_0":50,"TEXCOORD_1":51,"TEXCOORD_2":52},"indices":53,"material":11,"mode":4}]},{"name":"Object_12","primitives":[{"attributes":{"NORMAL":55,"POSITION":54,"TEXCOORD_0":56,"TEXCOORD_1":57,"TEXCOORD_2":58},"indices":59,"material":12,"mode":4}]},{"name":"Object_13","primitives":[{"attributes":{"NORMAL":61,"POSITION":60,"TEXCOORD_0":62,"TEXCOORD_1":63,"TEXCOORD_2":64},"indices":65,"material":13,"mode":4}]}],"nodes":[{"children":[1],"matrix":[1,0,0,0,0,2.220446049250313e-16,-1,0,0,1,2.220446049250313e-16,0,0,0,0,1],"name":"Sketchfab_model"},{"children":[2],"name":"root"},{"children":[3],"matrix":[1,0,0,0,0,2.220446049250313e-16,1,0,0,-1,2.220446049250313e-16,0,0,0,0,1],"name":"GLTF_SceneRootNode"},{"children":[4,6,8,10,12,14,16,18,20,22,24,26,29,32],"name":"root_15"},{"children":[5],"matrix":[-2.2926435521195257e-8,2.4317146372733563e-9,0.01359913963822556,0,9.43627018294209e-15,0.03912767395377097,-6.99657037186236e-9,0,-0.04749977216117784,-2.8638319394046588e-15,-8.007862943502994e-8,0,0.22681091725826263,0.5087590217590332,0.6541827321052551,1],"name":"_0"},{"mesh":0,"name":"Object_5"},{"children":[7],"matrix":[0.08400921523568856,-6.292123397583102e-15,6.021773405745699e-8,0,1.1904953080173085e-14,0.08565647900104488,-7.65828600534773e-9,0,-4.302516602466338e-10,5.366565525301506e-11,0.0006002401933072432,0,-0.1297917515039444,0.6252454519271851,0.7035771608352661,1],"name":"_1"},{"mesh":1,"name":"Object_7"},{"children":[9],"matrix":[0.08400921523568856,-6.292123397583102e-15,6.021773405745699e-8,0,1.1904953080173085e-14,0.08565647900104488,-7.65828600534773e-9,0,-4.302516602466338e-10,5.366565525301506e-11,0.0006002401933072432,0,-0.040513429790735245,0.5694796442985535,0.7035772800445557,1],"name":"_2"},{"mesh":2,"name":"Object_9"},{"children":[11],"matrix":[0.08400921523568856,-6.292123397583102e-15,6.021773405745699e-8,0,1.1904953080173085e-14,0.08565647900104488,-7.65828600534773e-9,0,-4.302516602466338e-10,5.366565525301506e-11,0.0006002401933072432,0,-0.13377784192562103,0.5199985504150391,0.7035771608352661,1],"name":"_3"},{"mesh":3,"name":"Object_11"},{"children":[13],"matrix":[-0.46559131145450416,-1.4762159903450084e-14,-5.002438845898531e-7,0,9.193508324091092e-14,0.9539298415183953,-1.1371701400932216e-7,0,1.715239299755213e-7,-1.9030789708734807e-8,-0.15964223444452494,0,0.022266602143645287,0.22428090870380402,0.6516338586807251,1],"name":"_4"},{"mesh":4,"name":"Object_13"},{"children":[15],"matrix":[0.09871971607201219,1.7248860009943399e-15,1.178354598669622e-7,0,1.0752962981080888e-14,0.1204856112599368,-1.0772253089535111e-8,0,-6.291875336164161e-9,4.712803897132796e-10,0.005271181929852762,0,0.017097657546401024,0.19223137199878693,0.6791850924491882,1],"name":"_5"},{"mesh":5,"name":"Object_15"},{"children":[17],"matrix":[-0.47912684082984924,7.522732364295854e-17,-2.5242109668198986e-9,0,7.521739119094492e-16,0.9581269025802545,-1.1421762735608313e-7,0,5.268354214750714e-12,-1.1920923970176703e-10,-0.0009999995818361568,0,0.026137085631489754,0.22279851138591766,0.6212796568870544,1],"name":"_6"},{"mesh":6,"name":"Object_17"},{"children":[19],"matrix":[-2.7046212184754778e-8,2.8686821031541806e-9,0.016042843461013624,0,1.9041885115320864e-14,0.0789575502276408,-1.4118701076704536e-8,0,-0.04750005528324052,-2.86384739926195e-15,-8.007910674314556e-8,0,0.22705402970314026,0.3174169361591339,0.6554053425788879,1],"name":"_7"},{"mesh":7,"name":"Object_19"},{"children":[21],"matrix":[-2.7046212184754778e-8,2.8686821031541806e-9,0.016042843461013624,0,1.9041885115320864e-14,0.0789575502276408,-1.4118701076704536e-8,0,-0.04750005528324052,-2.86384739926195e-15,-8.007910674314556e-8,0,0.22705402970314026,0.4174247086048126,0.6554003357887268,1],"name":"_8"},{"mesh":8,"name":"Object_21"},{"children":[23],"matrix":[0.19555810093874676,2.02737645228609e-15,1.4017585825969094e-7,0,1.1217158760287932e-14,0.20880904793739236,-1.8668983692289697e-8,0,-2.2598673759101767e-8,2.8187522316257427e-9,0.031527210026971224,0,-0.08522631973028183,0.5716102123260498,0.6698699593544006,1],"name":"_9"},{"mesh":9,"name":"Object_23"},{"children":[25],"matrix":[2.1094220237585116e-8,8.39017185713161e-9,0.020853891968714757,0,1.9762760691529735e-9,0.13262909650801538,-5.336082858373642e-8,0,-0.048214014619564184,7.184457120513822e-10,4.876965117211916e-8,0,-0.1788814812898636,0.39392414689064026,0.6525766253471375,1],"name":"_10"},{"mesh":10,"name":"Object_25"},{"children":[27],"matrix":[0.0016472446732218801,1.707719574994218e-17,1.180743394030532e-9,0,8.848950886956466e-17,0.0016472450224682624,-1.472751816333453e-10,0,-4.30251466837641e-10,5.3665639640485435e-11,0.0006002400186842605,0,-0.13017237186431885,0.6251034736633301,0.6864757537841797,1],"name":"node_id37_16"},{"children":[28],"matrix":[1.4340113401412913,2.2488799165680116e-14,1.2087816061953703e-7,0,-1.2087812042515754e-7,3.626342532077654e-7,1.4340108633040873,0,-8.079006477695669e-15,-1.4340118169784088,3.6263449437398136e-7,0,0,0,0,1],"name":"_11"},{"mesh":11,"name":"Object_28"},{"children":[30],"matrix":[0.0016472446732218801,1.707719574994218e-17,1.180743394030532e-9,0,8.848950886956466e-17,0.0016472450224682624,-1.472751816333453e-10,0,-4.30251466837641e-10,5.3665639640485435e-11,0.0006002400186842605,0,-0.0408940464258194,0.5693376660346985,0.6864758729934692,1],"name":"node_id31_14"},{"children":[31],"matrix":[1.4340113401412913,2.2488799165680116e-14,1.2087816061953703e-7,0,-1.2087812042515754e-7,3.626342532077654e-7,1.4340108633040873,0,-8.079006477695669e-15,-1.4340118169784088,3.6263449437398136e-7,0,0,0,0,1],"name":"_12"},{"mesh":12,"name":"Object_31"},{"children":[33],"matrix":[0.0016472446732218801,1.707719574994218e-17,1.180743394030532e-9,0,8.848950886956466e-17,0.0016472450224682624,-1.472751816333453e-10,0,-4.30251466837641e-10,5.3665639640485435e-11,0.0006002400186842605,0,-0.13415858149528503,0.5198565721511841,0.6864757537841797,1],"name":"node_id34_17"},{"children":[34],"matrix":[1.4340113401412913,2.2488799165680116e-14,1.2087816061953703e-7,0,-1.2087812042515754e-7,3.626342532077654e-7,1.4340108633040873,0,-8.079006477695669e-15,-1.4340118169784088,3.6263449437398136e-7,0,0,0,0,1],"name":"_13"},{"mesh":13,"name":"Object_34"}],"samplers":[{"magFilter":9729,"minFilter":9987,"wrapS":10497,"wrapT":10497}],"scene":0,"scenes":[{"name":"Sketchfab_Scene","nodes":[0]}],"textures":[{"sampler":0,"source":0},{"sampler":0,"source":1},{"sampler":0,"source":2},{"sampler":0,"source":3},{"sampler":0,"source":4},{"sampler":0,"source":5},{"sampler":0,"source":6},{"sampler":0,"source":7},{"sampler":0,"source":8},{"sampler":0,"source":9}]}